Coordinates
version=1
nRows=36
nColumns=38
inDegrees=no

Units are S.I. units (second, meters, Newtons, ...)
If the header above contains a line with 'inDegrees', this indicates whether rotational values are in degrees (yes) or radians (no).

endheader
time	pelvis_tilt	pelvis_list	pelvis_rotation	pelvis_tx	pelvis_ty	pelvis_tz	hip_flexion_r	hip_adduction_r	hip_rotation_r	knee_angle_r	ankle_angle_r	subtalar_angle_r	mtp_angle_r	hip_flexion_l	hip_adduction_l	hip_rotation_l	knee_angle_l	ankle_angle_l	subtalar_angle_l	mtp_angle_l	lumbar_extension	lumbar_bending	lumbar_rotation	arm_flex_r	arm_add_r	arm_rot_r	elbow_flex_r	pro_sup_r	wrist_flex_r	wrist_dev_r	arm_flex_l	arm_add_l	arm_rot_l	elbow_flex_l	pro_sup_l	wrist_flex_l	wrist_dev_l
0	-0.182967	0.0472079	-2.9944	-0.214921	0.944067	0.0105801	0.346389	0.0350561	-0.263158	0.65287	0.165399	0	0	-0.159165	-0.14887	-0.0566452	1.09309	-0.235038	0	0	-0.399437	0.150437	-0.108287	0.00909492	-0.334973	1.47849	0.345429	0.00745873	0	0	0.657736	-0.293481	1.25313	0.808218	0.485841	0	0
0.00999083	-0.180292	0.0475759	-2.9939	-0.214462	0.946295	0.00854957	0.328113	0.0404152	-0.261669	0.641393	0.17419	0	0	-0.123189	-0.152728	-0.0574766	1.12802	-0.223805	0	0	-0.396644	0.148816	-0.105372	0.0402738	-0.327561	1.48495	0.353595	0.00751309	0	0	0.631315	-0.288022	1.27605	0.780487	0.449906	0	0
0.0199817	-0.177672	0.0480252	-2.9935	-0.213803	0.948742	0.00657268	0.309566	0.0459666	-0.260021	0.629415	0.182763	0	0	-0.0873648	-0.156404	-0.0581466	1.16247	-0.21192	0	0	-0.394001	0.14714	-0.102253	0.0714784	-0.320185	1.49125	0.361854	0.00768883	0	0	0.604863	-0.282606	1.2985	0.752977	0.413997	0	0
0.0299725	-0.175256	0.048504	-2.99332	-0.212958	0.951391	0.00464064	0.290405	0.0517365	-0.258031	0.616513	0.190909	0	0	-0.0520474	-0.159322	-0.0582151	1.19562	-0.19876	0	0	-0.391757	0.145167	-0.098727	0.10274	-0.312885	1.4972	0.370364	0.00822787	0	0	0.578294	-0.277401	1.31958	0.726099	0.378381	0	0
0.0399633	-0.173257	0.0488484	-2.9935	-0.21194	0.954235	0.00274853	0.270269	0.0576023	-0.25551	0.602377	0.198457	0	0	-0.0176961	-0.160764	-0.0572637	1.22645	-0.184068	0	0	-0.390226	0.142559	-0.0945103	0.134023	-0.305715	1.50255	0.379299	0.0094906	0	0	0.5516	-0.27254	1.33847	0.700259	0.343277	0	0
0.0499541	-0.171897	0.048853	-2.99419	-0.21076	0.957263	0.00088842	0.24884	0.0633635	-0.252286	0.586811	0.205278	0	0	0.0152206	-0.160245	-0.055253	1.254	-0.168013	0	0	-0.38972	0.139001	-0.0892777	0.165255	-0.298767	1.5072	0.388831	0.0119502	0	0	0.524853	-0.268099	1.35465	0.675783	0.308814	0	0
0.059945	-0.171295	0.048296	-2.99554	-0.209439	0.960454	-0.000949774	0.225979	0.0687618	-0.248216	0.569763	0.211308	0	0	0.0463699	-0.157687	-0.05266	1.27749	-0.151066	0	0	-0.390347	0.134262	-0.0828832	0.196395	-0.29214	1.51106	0.399125	0.0161799	0	0	0.49805	-0.264188	1.36781	0.652906	0.275036	0	0
0.0699358	-0.171459	0.04691	-2.99765	-0.208001	0.96377	-0.00277164	0.201705	0.0734612	-0.243169	0.551318	0.216554	0	0	0.0755602	-0.153416	-0.0504872	1.29635	-0.133855	0	0	-0.392039	0.128217	-0.0753586	0.227423	-0.285922	1.51405	0.410306	0.0228277	0	0	0.471125	-0.260932	1.378	0.631739	0.241927	0	0
0.0799266	-0.172308	0.0445999	-3.00064	-0.206479	0.96716	-0.00457818	0.176179	0.0772932	-0.237059	0.5316	0.221029	0	0	0.102737	-0.147804	-0.0494665	1.31021	-0.116851	0	0	-0.394564	0.120941	-0.0670487	0.258483	-0.280169	1.51608	0.422512	0.0325746	0	0	0.443875	-0.258557	1.3855	0.612344	0.20943	0	0
0.0899174	-0.173621	0.0413856	-3.00458	-0.204906	0.970554	-0.00636073	0.149735	0.0801943	-0.229853	0.510802	0.224782	0	0	0.128025	-0.141216	-0.0500575	1.31883	-0.100334	0	0	-0.397507	0.11267	-0.0584251	0.289713	-0.2749	1.51698	0.435832	0.0460677	0	0	0.416026	-0.257295	1.39068	0.594725	0.177609	0	0
0.0999083	-0.175267	0.0373676	-3.00948	-0.203291	0.973887	-0.00812168	0.122663	0.0821843	-0.221579	0.489215	0.227957	0	0	0.151505	-0.134005	-0.0524815	1.3222	-0.084357	0	0	-0.40072	0.103609	-0.0498442	0.321212	-0.270183	1.51649	0.450485	0.0638224	0	0	0.387502	-0.257402	1.39398	0.579062	0.146834	0	0
0.109899	-0.177143	0.0327319	-3.01532	-0.201643	0.977095	-0.00986177	0.0952201	0.0833697	-0.212312	0.467133	0.23071	0	0	0.173264	-0.126511	-0.0567601	1.32039	-0.0688406	0	0	-0.404081	0.0939947	-0.041414	0.352907	-0.266153	1.51429	0.466686	0.0860886	0	0	0.358374	-0.258943	1.39582	0.565377	0.117774	0	0
0.11989	-0.179168	0.0277227	-3.02201	-0.199967	0.980115	-0.0115796	0.0676333	0.0839225	-0.202163	0.444831	0.233196	0	0	0.193397	-0.119054	-0.0627633	1.31359	-0.0536613	0	0	-0.407494	0.0840922	-0.0330648	0.384604	-0.262997	1.50993	0.48463	0.112795	0	0	0.328808	-0.261834	1.39659	0.553549	0.0913035	0	0
0.129881	-0.18129	0.0226123	-3.02943	-0.198263	0.982893	-0.0132698	0.0400794	0.0840496	-0.191297	0.422546	0.23556	0	0	0.212004	-0.111912	-0.0702368	1.302	-0.0387264	0	0	-0.4109	0.0741836	-0.0246354	0.416035	-0.260924	1.50294	0.504487	0.143592	0	0	0.299043	-0.265895	1.39663	0.543365	0.0683118	0	0
0.139872	-0.183485	0.0176721	-3.03739	-0.19653	0.985383	-0.0149222	0.0126694	0.0839666	-0.179928	0.40046	0.237928	0	0	0.22917	-0.105308	-0.0788363	1.28585	-0.0240213	0	0	-0.414278	0.064554	-0.015944	0.446896	-0.260149	1.49281	0.526379	0.177959	0	0	0.269353	-0.270898	1.3962	0.534566	0.0493763	0	0
0.149862	-0.185746	0.0131488	-3.04565	-0.194766	0.987548	-0.0165223	-0.0145445	0.0838787	-0.168306	0.378695	0.240412	0	0	0.244969	-0.0994012	-0.088171	1.26538	-0.00961825	0	0	-0.41764	0.0554727	-0.00683427	0.476875	-0.260858	1.47909	0.550368	0.215342	0	0	0.240032	-0.276602	1.39552	0.5269	0.0345423	0	0
0.159853	-0.188067	0.00924556	-3.05395	-0.192968	0.98936	-0.0180538	-0.0415414	0.083965	-0.156703	0.357326	0.243109	0	0	0.259471	-0.0942788	-0.0978464	1.24077	0.00434487	0	0	-0.421003	0.0471723	0.00279505	0.505689	-0.263191	1.46148	0.576427	0.255213	0	0	0.21136	-0.282786	1.39474	0.52015	0.0235117	0	0
0.169844	-0.190435	0.00610757	-3.062	-0.191136	0.990797	-0.0194999	-0.0683117	0.0843693	-0.145384	0.336402	0.246106	0	0	0.272741	-0.0899601	-0.1075	1.21221	0.0176987	0	0	-0.424372	0.0398348	0.0129657	0.533112	-0.267198	1.43996	0.604418	0.297017	0	0	0.183576	-0.289282	1.39396	0.51415	0.0157905	0	0
0.179835	-0.192823	0.00381867	-3.06955	-0.189271	0.991845	-0.0208451	-0.0948471	0.0851974	-0.13459	0.315963	0.249479	0	0	0.284833	-0.086402	-0.116824	1.17983	0.0302828	0	0	-0.427744	0.0335861	0.0236053	0.559016	-0.272819	1.41493	0.634072	0.340098	0	0	0.156858	-0.295977	1.39326	0.508793	0.0107996	0	0
0.189826	-0.195202	0.00240484	-3.07636	-0.187378	0.992496	-0.022076	-0.121131	0.0865184	-0.124515	0.296059	0.253298	0	0	0.295789	-0.0835087	-0.125581	1.14376	0.0419565	0	0	-0.4311	0.0284984	0.0345553	0.583376	-0.279894	1.3871	0.665015	0.38369	0	0	0.131316	-0.302807	1.39268	0.504011	0.00795135	0	0
0.199817	-0.197541	0.00184548	-3.08223	-0.185462	0.992748	-0.0231809	-0.147138	0.0883711	-0.115304	0.276754	0.257623	0	0	0.305634	-0.0811443	-0.133594	1.10409	0.0526137	0	0	-0.434423	0.0246007	0.0455947	0.606257	-0.288193	1.35737	0.69682	0.426988	0	0	0.107001	-0.309743	1.39221	0.499763	0.00669965	0	0
0.209807	-0.19981	0.00208213	-3.08699	-0.183532	0.992605	-0.0241506	-0.17283	0.0907649	-0.107046	0.258124	0.262502	0	0	0.314385	-0.0791472	-0.140756	1.06093	0.0621975	0	0	-0.437693	0.021882	0.0564734	0.627783	-0.297455	1.32672	0.729037	0.469219	0	0	0.083909	-0.31677	1.39188	0.496018	0.00656847	0	0
0.219798	-0.201975	0.00302429	-3.09056	-0.181595	0.992073	-0.0249789	-0.198146	0.0936768	-0.0997804	0.24027	0.267982	0	0	0.322062	-0.0773391	-0.147021	1.01441	0.0707251	0	0	-0.440884	0.0202912	0.0669397	0.648101	-0.307397	1.29605	0.761221	0.509724	0	0	0.0619977	-0.323878	1.39165	0.492738	0.0071645	0	0
0.229789	-0.203997	0.00455615	-3.09288	-0.179664	0.991161	-0.0256626	-0.223002	0.0970508	-0.0935151	0.22331	0.274098	0	0	0.3287	-0.0755325	-0.152385	0.964705	0.0782617	0	0	-0.443961	0.0197392	0.0767622	0.667359	-0.31774	1.26613	0.792945	0.547996	0	0	0.0411941	-0.331051	1.39153	0.489885	0.00817859	0	0
0.23978	-0.205832	0.00654521	-3.09398	-0.17775	0.989885	-0.0262018	-0.247293	0.100802	-0.088239	0.207375	0.280872	0	0	0.334356	-0.0735406	-0.156864	0.91205	0.0848998	0	0	-0.446875	0.0201031	0.0857488	0.685676	-0.328224	1.23757	0.823824	0.583684	0	0	0.0214099	-0.338266	1.39149	0.487415	0.00937997	0	0
0.249771	-0.207432	0.00885207	-3.09392	-0.175867	0.988259	-0.0265993	-0.270912	0.104824	-0.0839282	0.19259	0.288303	0	0	0.339115	-0.0711891	-0.160469	0.856786	0.0907579	0	0	-0.449575	0.0212353	0.0937599	0.703129	-0.338621	1.21074	0.853533	0.616585	0	0	0.00255678	-0.345491	1.39152	0.485276	0.0106064	0	0
0.259761	-0.208755	0.0113387	-3.0928	-0.174034	0.986303	-0.0268602	-0.293758	0.108997	-0.0805452	0.179063	0.296361	0	0	0.343085	-0.0683248	-0.163188	0.799368	0.0959923	0	0	-0.452009	0.0229715	0.100717	0.719737	-0.348748	1.18584	0.881817	0.646637	0	0	-0.0154394	-0.352678	1.39159	0.483409	0.0117521	0	0
0.269752	-0.20976	0.013874	-3.09074	-0.172268	0.984041	-0.0269908	-0.315751	0.113192	-0.0780389	0.166875	0.304982	0	0	0.346403	-0.0648229	-0.164964	0.740376	0.100808	0	0	-0.454128	0.0251367	0.106607	0.735463	-0.358472	1.16291	0.908485	0.673891	0	0	-0.0326316	-0.359776	1.39169	0.481751	0.0127561	0	0
0.279743	-0.210414	0.0163394	-3.08792	-0.170591	0.981502	-0.0269988	-0.336823	0.117279	-0.0763423	0.156079	0.314064	0	0	0.349232	-0.0605956	-0.165685	0.680527	0.105468	0	0	-0.455883	0.0275513	0.111477	0.750217	-0.367699	1.14183	0.933415	0.698481	0	0	-0.0490491	-0.366726	1.39181	0.480239	0.0135908	0	0
0.289734	-0.210687	0.0186275	-3.08449	-0.169025	0.978719	-0.0268926	-0.356926	0.121123	-0.0753834	0.146716	0.323473	0	0	0.351747	-0.0555886	-0.165176	0.620663	0.110289	0	0	-0.457235	0.0300327	0.115418	0.763876	-0.376365	1.12242	0.956533	0.720573	0	0	-0.064702	-0.373471	1.39195	0.478812	0.0142519	0	0
0.299725	-0.210568	0.0206398	-3.08066	-0.167594	0.975728	-0.0266801	-0.376029	0.124585	-0.0750837	0.138822	0.333058	0	0	0.35412	-0.0497781	-0.163202	0.561727	0.115635	0	0	-0.458162	0.0323976	0.118551	0.776293	-0.384428	1.10444	0.977807	0.740345	0	0	-0.0795811	-0.379959	1.39209	0.477416	0.0147507	0	0
0.309716	-0.210066	0.0222855	-3.07661	-0.166324	0.972575	-0.0263686	-0.394128	0.127519	-0.0753543	0.13243	0.342646	0	0	0.356484	-0.0431706	-0.159493	0.504716	0.12187	0	0	-0.458663	0.0344649	0.121024	0.787304	-0.391869	1.08764	0.997239	0.757975	0	0	-0.0936597	-0.386145	1.39223	0.476008	0.0151072	0	0
0.319706	-0.209222	0.0234864	-3.07253	-0.165238	0.96931	-0.0259654	-0.411251	0.129784	-0.0760866	0.127576	0.352043	0	0	0.35892	-0.0358144	-0.153797	0.450639	0.129279	0	0	-0.458766	0.0360628	0.122997	0.796751	-0.398677	1.07176	1.01484	0.773629	0	0	-0.106901	-0.391993	1.39236	0.474561	0.0153457	0	0
0.329697	-0.208114	0.0241857	-3.06864	-0.164363	0.965992	-0.0254789	-0.427468	0.131247	-0.0771388	0.124296	0.361033	0	0	0.361427	-0.0278163	-0.145961	0.400469	0.137963	0	0	-0.45854	0.0370398	0.12465	0.804503	-0.404845	1.05662	1.03063	0.787467	0	0	-0.11926	-0.397469	1.3925	0.473056	0.0154912	0	0
0.339688	-0.206856	0.0243485	-3.06515	-0.163724	0.962682	-0.0249192	-0.442879	0.131795	-0.0783411	0.122626	0.36937	0	0	0.363944	-0.0193405	-0.136006	0.35511	0.147751	0	0	-0.458081	0.0372701	0.126163	0.810465	-0.410366	1.04208	1.04461	0.799625	0	0	-0.130695	-0.402546	1.39262	0.471494	0.0155673	0	0
0.349679	-0.205574	0.0239608	-3.06225	-0.163343	0.959443	-0.0242988	-0.457607	0.131339	-0.0795154	0.122593	0.376782	0	0	0.366374	-0.0106001	-0.124203	0.315387	0.15817	0	0	-0.457492	0.0366582	0.127704	0.814572	-0.415226	1.02809	1.05678	0.810195	0	0	-0.14117	-0.407206	1.39275	0.469886	0.0155948	0	0
